<svg width="67" height="53" viewBox="0 0 134 106" fill="none" xmlns="http://www.w3.org/2000/svg">
<path fill-rule="evenodd" clip-rule="evenodd" d="M65.0806 96.7607C64.7454 98.1015 64.0721 99.2566 63.0851 100.368C62.0109 101.56 60.5113 102.581 58.9076 103.382C55.2571 105.208 51.0225 105.757 46.8459 105.219L46.8184 105.215L46.7908 105.212C43.0052 104.821 39.3632 103.259 36.5084 100.678L2.72455 67.1864L2.72133 67.1832C1.76317 66.2247 1.11071 65.4278 0.689257 64.4795C0.225889 63.437 0.00213372 62.4269 0 61.288L0.293869 42.7742L0.289054 42.6924C0.181308 40.8607 0.803282 39.0905 2.34168 37.4337L2.35331 37.4212L2.36475 37.4085C3.43438 36.22 4.92716 35.2016 6.52488 34.4003C10.1225 32.7056 14.5172 32.1242 18.6903 32.6458C22.8859 33.1703 26.6293 34.778 29.0508 37.1994L29.0558 37.2045L62.9271 70.6359L62.97 70.674C63.9589 71.553 64.6574 72.6824 65.1472 74.0295C65.4825 74.9515 65.6841 75.7639 65.7451 76.5601L65.3078 95.3643V95.3898C65.3078 95.6919 65.2192 96.206 65.0806 96.7607Z" fill="#FFC633"/>
<path d="M79.7715 31.6406C80.3348 32.5032 80.7864 33.4389 81.1118 34.426C81.5329 35.7031 81.8447 37.6956 81.821 39.029L81.7093 45.6699L104.264 68.2176C107.119 70.799 110.761 72.3606 114.546 72.7522L114.574 72.7551L114.602 72.7586C118.778 73.2976 123.013 72.7477 126.663 70.9224C128.267 70.1206 129.767 69.1 130.841 67.9083C131.828 66.7966 132.501 65.6414 132.836 64.3006C132.975 63.7459 133.063 63.2319 133.063 62.9298V62.9042L133.501 44.0999C133.487 43.9173 133.465 43.7334 133.436 43.547L79.7715 31.6406Z" fill="#6557FF"/>
<path d="M133.436 43.5417C133.34 42.9271 133.163 42.2843 132.903 41.5685C132.413 40.2215 131.715 39.0921 130.726 38.2131L130.683 38.175L96.8113 4.74355L96.8062 4.73848C94.3848 2.31705 90.6414 0.709333 86.4457 0.184873C82.2726 -0.336762 77.8779 0.244684 74.2803 1.93933C72.6826 2.74063 71.1898 3.75908 70.1202 4.94756L70.1087 4.96026L70.0971 4.97279C68.5587 6.62952 67.9367 8.39976 68.0445 10.2314L68.0493 10.3133L67.7539 24.412C71.5095 25.3329 75.0935 26.6735 77.7032 29.2424C78.4993 29.9489 79.1939 30.7561 79.7711 31.6397L133.436 43.5417Z" fill="#6557FF"/>
<path d="M76.378 64.0819C76.4398 64.0176 76.5008 63.9525 76.5616 63.8871C77.7437 62.6195 78.5851 61.0729 79.007 59.3917C79.1663 58.7592 79.2548 58.1109 79.2706 57.4588L79.6228 38.5225C79.6091 39.161 79.3939 38.0174 79.2425 38.6379C79.3783 38.0125 79.6113 39.1982 79.6222 38.5636L79.6223 38.5621C79.6408 37.4766 79.4775 36.3911 79.1348 35.3514C78.5915 33.7035 77.6171 32.231 76.3127 31.0868C70.5726 25.3906 59.2975 23.9556 51.2146 27.8653C49.3866 28.7246 47.741 29.9277 46.3678 31.4089C44.3968 33.5639 43.4581 36.0965 43.6421 38.6342L43.6082 40.2583L76.378 64.0819L76.3767 64.0827L43.6082 40.2583L43.4502 47.8181L64.9358 69.0246C65.0607 69.1357 65.1817 69.2493 65.2988 69.3655C67.5375 69.0355 69.714 68.4008 71.7001 67.4454C73.4507 66.6171 75.0352 65.4774 76.3767 64.0827L76.378 64.0819Z" fill="#61DFC6"/>
</svg>
