<svg width="548" height="106" viewBox="0 0 548 106" fill="none" xmlns="http://www.w3.org/2000/svg">
<g clip-path="url(#clip0_1756_30)">
<path d="M290.52 52.774C290.52 54.535 290.404 56.1199 290.174 57.5287H255.225C255.512 61.0507 256.72 63.8095 258.849 65.8053C260.978 67.8011 263.595 68.799 266.702 68.799C271.189 68.799 274.382 66.8326 276.281 62.8997H289.311C287.931 67.5957 285.284 71.4699 281.372 74.5222C277.46 77.5159 272.656 79.0128 266.961 79.0128C262.358 79.0128 258.216 77.9855 254.534 75.931C250.91 73.8178 248.062 70.8535 245.991 67.038C243.977 63.2225 242.971 58.8201 242.971 53.8306C242.971 48.7824 243.977 44.3506 245.991 40.5351C248.004 36.7196 250.823 33.7847 254.448 31.7302C258.072 29.6757 262.243 28.6484 266.961 28.6484C271.506 28.6484 275.562 29.6463 279.128 31.6421C282.753 33.6379 285.543 36.4848 287.499 40.1829C289.513 43.8223 290.52 48.0193 290.52 52.774ZM278.007 49.252C277.949 46.0822 276.827 43.5582 274.641 41.6798C272.455 39.7427 269.78 38.7741 266.616 38.7741C263.624 38.7741 261.093 39.7133 259.022 41.5917C257.008 43.4114 255.771 45.9648 255.311 49.252H278.007Z" fill="white"/>
<path d="M393.131 36.4848C394.684 34.2543 396.813 32.4052 399.517 30.9377C402.278 29.4115 405.413 28.6484 408.923 28.6484C413.007 28.6484 416.689 29.6757 419.969 31.7302C423.305 33.7847 425.923 36.7196 427.822 40.5351C429.778 44.2919 430.756 48.665 430.756 53.6545C430.756 58.644 429.778 63.0758 427.822 66.95C425.923 70.7655 423.305 73.7298 419.969 75.843C416.689 77.9562 413.007 79.0128 408.923 79.0128C405.413 79.0128 402.307 78.279 399.603 76.8115C396.956 75.344 394.799 73.495 393.131 71.2644V101.465H381.049V29.4409H393.131V36.4848ZM418.415 53.6545C418.415 50.7195 417.811 48.1954 416.603 46.0822C415.453 43.9104 413.899 42.2668 411.943 41.1515C410.045 40.0362 407.974 39.4785 405.73 39.4785C403.544 39.4785 401.473 40.0655 399.517 41.2395C397.618 42.3548 396.065 43.9984 394.857 46.1703C393.706 48.3422 393.131 50.8956 393.131 53.8306C393.131 56.7656 393.706 59.319 394.857 61.4909C396.065 63.6628 397.618 65.3357 399.517 66.5097C401.473 67.625 403.544 68.1827 405.73 68.1827C407.974 68.1827 410.045 67.5957 411.943 66.4217C413.899 65.2477 415.453 63.5747 416.603 61.4029C417.811 59.231 418.415 56.6482 418.415 53.6545Z" fill="white"/>
<path d="M463.007 28.7353C466.632 28.7353 469.853 29.5571 472.672 31.2007C475.491 32.7856 477.678 35.1629 479.231 38.3327C480.842 41.4438 481.647 45.2005 481.647 49.603V78.2191H469.566V51.276C469.566 47.4018 468.617 44.4375 466.718 42.383C464.82 40.2698 462.231 39.2132 458.951 39.2132C455.615 39.2132 452.968 40.2698 451.012 42.383C449.114 44.4375 448.164 47.4018 448.164 51.276V78.2191H436.083V3.89062H448.164V35.5151C449.718 33.4019 451.789 31.7583 454.378 30.5843C456.967 29.3516 459.843 28.7353 463.007 28.7353Z" fill="white"/>
<path d="M495.811 23.6276C493.682 23.6276 491.899 22.9526 490.461 21.6025C489.08 20.1937 488.39 18.462 488.39 16.4076C488.39 14.3531 489.08 12.6508 490.461 11.3007C491.899 9.8919 493.682 9.1875 495.811 9.1875C497.94 9.1875 499.694 9.8919 501.075 11.3007C502.513 12.6508 503.233 14.3531 503.233 16.4076C503.233 18.462 502.513 20.1937 501.075 21.6025C499.694 22.9526 497.94 23.6276 495.811 23.6276ZM501.766 29.4389V78.2183H489.684V29.4389H501.766Z" fill="white"/>
<path d="M528.545 79.0128C524.633 79.0128 521.123 78.3084 518.017 76.8996C514.91 75.4321 512.436 73.4656 510.595 71.0003C508.812 68.5349 507.834 65.8053 507.661 62.8117H519.829C520.059 64.69 520.951 66.2456 522.504 67.4783C524.115 68.711 526.1 69.3273 528.459 69.3273C530.76 69.3273 532.543 68.8577 533.809 67.9185C535.132 66.9793 535.794 65.776 535.794 64.3085C535.794 62.7236 534.988 61.5496 533.377 60.7865C531.824 59.9647 529.322 59.0842 525.87 58.145C522.303 57.2645 519.369 56.3547 517.068 55.4155C514.824 54.4763 512.868 53.0382 511.199 51.1011C509.589 49.164 508.783 46.5518 508.783 43.2647C508.783 40.5645 509.531 38.0991 511.027 35.8685C512.58 33.6379 514.766 31.8769 517.585 30.5855C520.462 29.2941 523.827 28.6484 527.682 28.6484C533.377 28.6484 537.922 30.1159 541.317 33.0509C544.711 35.9272 546.581 39.8307 546.926 44.7615H535.362C535.19 42.8244 534.384 41.2982 532.946 40.1829C531.565 39.0089 529.695 38.4219 527.337 38.4219C525.151 38.4219 523.453 38.8328 522.245 39.6546C521.095 40.4764 520.519 41.6211 520.519 43.0886C520.519 44.7322 521.325 45.9942 522.936 46.8747C524.546 47.6965 527.049 48.5476 530.443 49.4281C533.895 50.3086 536.743 51.2185 538.987 52.1577C541.23 53.0969 543.158 54.5643 544.768 56.5601C546.437 58.4972 547.3 61.08 547.357 64.3085C547.357 67.1261 546.581 69.6502 545.027 71.8808C543.531 74.1114 541.345 75.8723 538.469 77.1637C535.65 78.3964 532.342 79.0128 528.545 79.0128Z" fill="white"/>
<path d="M217.169 27.8281C222.818 27.8281 227.36 29.6855 230.795 33.4003C234.284 37.0561 236.029 42.186 236.029 48.79V77.5354H224.397V50.4705C224.397 46.6378 223.483 43.7191 221.655 41.7143C219.827 39.6505 217.335 38.6186 214.178 38.6186C211.021 38.6186 208.5 39.6505 206.617 41.7143C204.789 43.7191 203.875 46.6378 203.875 50.4705V77.5354H192.244V50.4705C192.244 46.6378 191.33 43.7191 189.502 41.7143C187.674 39.6505 185.182 38.6186 182.024 38.6186C178.812 38.6186 176.264 39.6505 174.381 41.7143C172.553 43.7191 171.639 46.6378 171.639 50.4705V77.5354H160.007V28.5357H171.639V34.4616C173.134 32.3978 175.045 30.7763 177.372 29.597C179.753 28.4177 182.357 27.8281 185.182 27.8281C188.782 27.8281 191.994 28.6536 194.819 30.3046C197.644 31.8966 199.832 34.1963 201.383 37.2035C202.878 34.3732 205.039 32.103 207.863 30.393C210.744 28.6831 213.845 27.8281 217.169 27.8281Z" fill="white"/>
<path d="M354.73 27.8281C360.379 27.8281 364.921 29.6855 368.355 33.4003C371.845 37.0561 373.59 42.186 373.59 48.79V77.5354H361.958V50.4705C361.958 46.6378 361.044 43.7191 359.216 41.7143C357.388 39.6505 354.896 38.6186 351.739 38.6186C348.581 38.6186 346.061 39.6505 344.178 41.7143C342.35 43.7191 341.436 46.6378 341.436 50.4705V77.5354H329.805V50.4705C329.805 46.6378 328.891 43.7191 327.063 41.7143C325.235 39.6505 322.742 38.6186 319.585 38.6186C316.373 38.6186 313.825 39.6505 311.941 41.7143C310.114 43.7191 309.2 46.6378 309.2 50.4705V77.5354H297.568V28.5357H309.2V34.4616C310.695 32.3978 312.606 30.7763 314.933 29.597C317.314 28.4177 319.918 27.8281 322.742 27.8281C326.343 27.8281 329.555 28.6536 332.38 30.3046C335.205 31.8966 337.393 34.1963 338.944 37.2035C340.439 34.3732 342.599 32.103 345.424 30.393C348.304 28.6831 351.406 27.8281 354.73 27.8281Z" fill="white"/>
<path fill-rule="evenodd" clip-rule="evenodd" d="M65.0806 96.7607C64.7454 98.1015 64.0721 99.2566 63.0851 100.368C62.0109 101.56 60.5113 102.581 58.9076 103.382C55.2571 105.208 51.0225 105.757 46.8459 105.219L46.8184 105.215L46.7908 105.212C43.0052 104.821 39.3632 103.259 36.5084 100.678L2.72455 67.1864L2.72133 67.1832C1.76317 66.2247 1.11071 65.4278 0.689257 64.4795C0.225889 63.437 0.00213372 62.4269 0 61.288L0.293869 42.7742L0.289054 42.6924C0.181308 40.8607 0.803282 39.0905 2.34168 37.4337L2.35331 37.4212L2.36475 37.4085C3.43438 36.22 4.92716 35.2016 6.52488 34.4003C10.1225 32.7056 14.5172 32.1242 18.6903 32.6458C22.8859 33.1703 26.6293 34.778 29.0508 37.1994L29.0558 37.2045L62.9271 70.6359L62.97 70.674C63.9589 71.553 64.6574 72.6824 65.1472 74.0295C65.4825 74.9515 65.6841 75.7639 65.7451 76.5601L65.3078 95.3643V95.3898C65.3078 95.6919 65.2192 96.206 65.0806 96.7607Z" fill="#FFC633"/>
<path d="M79.7715 31.6406C80.3348 32.5032 80.7864 33.4389 81.1118 34.426C81.5329 35.7031 81.8447 37.6956 81.821 39.029L81.7093 45.6699L104.264 68.2176C107.119 70.799 110.761 72.3606 114.546 72.7522L114.574 72.7551L114.602 72.7586C118.778 73.2976 123.013 72.7477 126.663 70.9224C128.267 70.1206 129.767 69.1 130.841 67.9083C131.828 66.7966 132.501 65.6414 132.836 64.3006C132.975 63.7459 133.063 63.2319 133.063 62.9298V62.9042L133.501 44.0999C133.487 43.9173 133.465 43.7334 133.436 43.547L79.7715 31.6406Z" fill="#6557FF"/>
<path d="M133.436 43.5417C133.34 42.9271 133.163 42.2843 132.903 41.5685C132.413 40.2215 131.715 39.0921 130.726 38.2131L130.683 38.175L96.8113 4.74355L96.8062 4.73848C94.3848 2.31705 90.6414 0.709333 86.4457 0.184873C82.2726 -0.336762 77.8779 0.244684 74.2803 1.93933C72.6826 2.74063 71.1898 3.75908 70.1202 4.94756L70.1087 4.96026L70.0971 4.97279C68.5587 6.62952 67.9367 8.39976 68.0445 10.2314L68.0493 10.3133L67.7539 24.412C71.5095 25.3329 75.0935 26.6735 77.7032 29.2424C78.4993 29.9489 79.1939 30.7561 79.7711 31.6397L133.436 43.5417Z" fill="#6557FF"/>
<path d="M76.378 64.0819C76.4398 64.0176 76.5008 63.9525 76.5616 63.8871C77.7437 62.6195 78.5851 61.0729 79.007 59.3917C79.1663 58.7592 79.2548 58.1109 79.2706 57.4588L79.6228 38.5225C79.6091 39.161 79.3939 38.0174 79.2425 38.6379C79.3783 38.0125 79.6113 39.1982 79.6222 38.5636L79.6223 38.5621C79.6408 37.4766 79.4775 36.3911 79.1348 35.3514C78.5915 33.7035 77.6171 32.231 76.3127 31.0868C70.5726 25.3906 59.2975 23.9556 51.2146 27.8653C49.3866 28.7246 47.741 29.9277 46.3678 31.4089C44.3968 33.5639 43.4581 36.0965 43.6421 38.6342L43.6082 40.2583L76.378 64.0819L76.3767 64.0827L43.6082 40.2583L43.4502 47.8181L64.9358 69.0246C65.0607 69.1357 65.1817 69.2493 65.2988 69.3655C67.5375 69.0355 69.714 68.4008 71.7001 67.4454C73.4507 66.6171 75.0352 65.4774 76.3767 64.0827L76.378 64.0819Z" fill="#61DFC6"/>
</g>
<defs>
<clipPath id="clip0_1756_30">
<rect width="548" height="106" fill="white"/>
</clipPath>
</defs>
</svg>
